<mxfile host="65bd71144e">
    <diagram name="Page-1" id="123436483296336">
        <mxGraphModel dx="1896" dy="1694" grid="1" gridSize="10" guides="1" tooltips="1" connect="1" arrows="1" fold="1" page="1" pageScale="1" pageWidth="850" pageHeight="1100" math="1" shadow="0">
            <root>
                <mxCell id="0"/>
                <mxCell id="1" parent="0"/>
                <mxCell id="123436480786080" value="" style="whiteSpace=wrap;rounded=0;fillColor=#dae8fc;strokeColor=#6c8ebf;dashed=0;inherit=default;html=1;strokeWidth=0;" parent="1" vertex="1">
                    <mxGeometry y="20" width="200" height="20" as="geometry"/>
                </mxCell>
                <mxCell id="123436480783488" value="" style="whiteSpace=wrap;rounded=0;fillColor=none;strokeColor=none;dashed=0;inherit=default;html=1;strokeWidth=0;" parent="1" vertex="1">
                    <mxGeometry as="geometry"/>
                </mxCell>
                <mxCell id="123436480254496" value="" style="whiteSpace=wrap;rounded=0;fillColor=none;strokeColor=none;dashed=0;inherit=default;html=1;strokeWidth=0;" parent="1" vertex="1">
                    <mxGeometry y="40" as="geometry"/>
                </mxCell>
                <mxCell id="123436480255216" style="edgeStyle=orthogonalEdgeStyle;orthogonalLoop=1;rounded=0;jettySize=auto;" parent="1" source="123436480254496" target="123436480783488" edge="1">
                    <mxGeometry relative="1" as="geometry"/>
                </mxCell>
                <mxCell id="123436480781760" value="" style="whiteSpace=wrap;rounded=0;fillColor=none;strokeColor=none;dashed=0;inherit=default;html=1;strokeWidth=0;" parent="1" vertex="1">
                    <mxGeometry y="40" as="geometry"/>
                </mxCell>
                <mxCell id="123436480255600" value="" style="whiteSpace=wrap;rounded=0;fillColor=none;strokeColor=none;dashed=0;inherit=default;html=1;strokeWidth=0;" parent="1" vertex="1">
                    <mxGeometry x="480" y="40" as="geometry"/>
                </mxCell>
                <mxCell id="123436480256368" style="edgeStyle=orthogonalEdgeStyle;orthogonalLoop=1;rounded=0;jettySize=auto;endArrow=none;" parent="1" source="123436480255600" target="123436480781760" edge="1">
                    <mxGeometry relative="1" as="geometry"/>
                </mxCell>
                <mxCell id="123436480257184" value="0" style="text;whiteSpace=wrap;rounded=0;dashed=0;inherit=default;" parent="1" vertex="1">
                    <mxGeometry x="-5" y="40" as="geometry"/>
                </mxCell>
                <mxCell id="123436480257376" value="1" style="text;whiteSpace=wrap;rounded=0;dashed=0;inherit=default;" parent="1" vertex="1">
                    <mxGeometry x="35" y="40" as="geometry"/>
                </mxCell>
                <mxCell id="123436480257568" value="2" style="text;whiteSpace=wrap;rounded=0;dashed=0;inherit=default;" parent="1" vertex="1">
                    <mxGeometry x="75" y="40" as="geometry"/>
                </mxCell>
                <mxCell id="123436480257760" value="3" style="text;whiteSpace=wrap;rounded=0;dashed=0;inherit=default;" parent="1" vertex="1">
                    <mxGeometry x="115" y="40" as="geometry"/>
                </mxCell>
                <mxCell id="123436480257952" value="4" style="text;whiteSpace=wrap;rounded=0;dashed=0;inherit=default;" parent="1" vertex="1">
                    <mxGeometry x="155" y="40" as="geometry"/>
                </mxCell>
                <mxCell id="123436480258144" value="5" style="text;whiteSpace=wrap;rounded=0;dashed=0;inherit=default;" parent="1" vertex="1">
                    <mxGeometry x="195" y="40" as="geometry"/>
                </mxCell>
                <mxCell id="123436480258336" value="6" style="text;whiteSpace=wrap;rounded=0;dashed=0;inherit=default;" parent="1" vertex="1">
                    <mxGeometry x="235" y="40" as="geometry"/>
                </mxCell>
                <mxCell id="123436480258528" value="7" style="text;whiteSpace=wrap;rounded=0;dashed=0;inherit=default;" parent="1" vertex="1">
                    <mxGeometry x="275" y="40" as="geometry"/>
                </mxCell>
                <mxCell id="123436480258720" value="8" style="text;whiteSpace=wrap;rounded=0;dashed=0;inherit=default;" parent="1" vertex="1">
                    <mxGeometry x="315" y="40" as="geometry"/>
                </mxCell>
                <mxCell id="123436480258912" value="9" style="text;whiteSpace=wrap;rounded=0;dashed=0;inherit=default;" parent="1" vertex="1">
                    <mxGeometry x="355" y="40" as="geometry"/>
                </mxCell>
                <mxCell id="123436480259104" value="10" style="text;whiteSpace=wrap;rounded=0;dashed=0;inherit=default;" parent="1" vertex="1">
                    <mxGeometry x="395" y="40" as="geometry"/>
                </mxCell>
                <mxCell id="123436480259296" value="11" style="text;whiteSpace=wrap;rounded=0;dashed=0;inherit=default;" parent="1" vertex="1">
                    <mxGeometry x="435" y="40" as="geometry"/>
                </mxCell>
                <mxCell id="123436480259488" value="12" style="text;whiteSpace=wrap;rounded=0;dashed=0;inherit=default;" parent="1" vertex="1">
                    <mxGeometry x="475" y="40" as="geometry"/>
                </mxCell>
                <mxCell id="123436480259632" value="$$\tau_1: T=0, C=[5,5]$$" style="text;whiteSpace=wrap;rounded=0;dashed=0;inherit=default;" parent="1" vertex="1">
                    <mxGeometry x="-160" y="15" width="120" height="40" as="geometry"/>
                </mxCell>
                <mxCell id="123436480259776" value="" style="whiteSpace=wrap;rounded=0;fillColor=#f8cecc;strokeColor=#b85450;dashed=0;inherit=default;html=1;strokeWidth=0;" parent="1" vertex="1">
                    <mxGeometry x="200" y="100" width="120" height="20" as="geometry"/>
                </mxCell>
                <mxCell id="123436480259968" value="" style="whiteSpace=wrap;rounded=0;fillColor=none;strokeColor=none;dashed=0;inherit=default;html=1;strokeWidth=0;" parent="1" vertex="1">
                    <mxGeometry x="200" y="80" as="geometry"/>
                </mxCell>
                <mxCell id="123436480260256" value="" style="whiteSpace=wrap;rounded=0;fillColor=none;strokeColor=none;dashed=0;inherit=default;html=1;strokeWidth=0;" parent="1" vertex="1">
                    <mxGeometry x="200" y="120" as="geometry"/>
                </mxCell>
                <mxCell id="123436480260400" style="edgeStyle=orthogonalEdgeStyle;orthogonalLoop=1;rounded=0;jettySize=auto;" parent="1" source="123436480260256" target="123436480259968" edge="1">
                    <mxGeometry relative="1" as="geometry"/>
                </mxCell>
                <mxCell id="123436480261072" value="" style="whiteSpace=wrap;rounded=0;fillColor=none;strokeColor=none;dashed=0;inherit=default;html=1;strokeWidth=0;" parent="1" vertex="1">
                    <mxGeometry y="120" as="geometry"/>
                </mxCell>
                <mxCell id="123436480261168" value="" style="whiteSpace=wrap;rounded=0;fillColor=none;strokeColor=none;dashed=0;inherit=default;html=1;strokeWidth=0;" parent="1" vertex="1">
                    <mxGeometry x="480" y="120" as="geometry"/>
                </mxCell>
                <mxCell id="123436480261312" style="edgeStyle=orthogonalEdgeStyle;orthogonalLoop=1;rounded=0;jettySize=auto;endArrow=none;" parent="1" source="123436480261168" target="123436480261072" edge="1">
                    <mxGeometry relative="1" as="geometry"/>
                </mxCell>
                <mxCell id="123436480262080" value="0" style="text;whiteSpace=wrap;rounded=0;dashed=0;inherit=default;" parent="1" vertex="1">
                    <mxGeometry x="-5" y="120" as="geometry"/>
                </mxCell>
                <mxCell id="123436480262272" value="1" style="text;whiteSpace=wrap;rounded=0;dashed=0;inherit=default;" parent="1" vertex="1">
                    <mxGeometry x="35" y="120" as="geometry"/>
                </mxCell>
                <mxCell id="123436480262464" value="2" style="text;whiteSpace=wrap;rounded=0;dashed=0;inherit=default;" parent="1" vertex="1">
                    <mxGeometry x="75" y="120" as="geometry"/>
                </mxCell>
                <mxCell id="123436480262656" value="3" style="text;whiteSpace=wrap;rounded=0;dashed=0;inherit=default;" parent="1" vertex="1">
                    <mxGeometry x="115" y="120" as="geometry"/>
                </mxCell>
                <mxCell id="123436480262848" value="4" style="text;whiteSpace=wrap;rounded=0;dashed=0;inherit=default;" parent="1" vertex="1">
                    <mxGeometry x="155" y="120" as="geometry"/>
                </mxCell>
                <mxCell id="123436480263040" value="5" style="text;whiteSpace=wrap;rounded=0;dashed=0;inherit=default;" parent="1" vertex="1">
                    <mxGeometry x="195" y="120" as="geometry"/>
                </mxCell>
                <mxCell id="123436480263232" value="6" style="text;whiteSpace=wrap;rounded=0;dashed=0;inherit=default;" parent="1" vertex="1">
                    <mxGeometry x="235" y="120" as="geometry"/>
                </mxCell>
                <mxCell id="123436480263424" value="7" style="text;whiteSpace=wrap;rounded=0;dashed=0;inherit=default;" parent="1" vertex="1">
                    <mxGeometry x="275" y="120" as="geometry"/>
                </mxCell>
                <mxCell id="123436480263616" value="8" style="text;whiteSpace=wrap;rounded=0;dashed=0;inherit=default;" parent="1" vertex="1">
                    <mxGeometry x="315" y="120" as="geometry"/>
                </mxCell>
                <mxCell id="123436480263808" value="9" style="text;whiteSpace=wrap;rounded=0;dashed=0;inherit=default;" parent="1" vertex="1">
                    <mxGeometry x="355" y="120" as="geometry"/>
                </mxCell>
                <mxCell id="123436480264000" value="10" style="text;whiteSpace=wrap;rounded=0;dashed=0;inherit=default;" parent="1" vertex="1">
                    <mxGeometry x="395" y="120" as="geometry"/>
                </mxCell>
                <mxCell id="123436480264192" value="11" style="text;whiteSpace=wrap;rounded=0;dashed=0;inherit=default;" parent="1" vertex="1">
                    <mxGeometry x="435" y="120" as="geometry"/>
                </mxCell>
                <mxCell id="123436480264384" value="12" style="text;whiteSpace=wrap;rounded=0;dashed=0;inherit=default;" parent="1" vertex="1">
                    <mxGeometry x="475" y="120" as="geometry"/>
                </mxCell>
                <mxCell id="123436480264528" value="$$\tau_8: T=0, C=[3,3]$$" style="text;whiteSpace=wrap;rounded=0;dashed=0;inherit=default;" parent="1" vertex="1">
                    <mxGeometry x="-160" y="95" width="120" height="40" as="geometry"/>
                </mxCell>
                <mxCell id="123436480264672" value="" style="whiteSpace=wrap;rounded=0;fillColor=#dae8fc;strokeColor=#6c8ebf;dashed=0;inherit=default;html=1;strokeWidth=0;" parent="1" vertex="1">
                    <mxGeometry x="320" y="180" width="120" height="20" as="geometry"/>
                </mxCell>
                <mxCell id="123436480264864" value="" style="whiteSpace=wrap;rounded=0;fillColor=none;strokeColor=none;dashed=0;inherit=default;html=1;strokeWidth=0;" parent="1" vertex="1">
                    <mxGeometry x="320" y="160" as="geometry"/>
                </mxCell>
                <mxCell id="123436480265152" value="" style="whiteSpace=wrap;rounded=0;fillColor=none;strokeColor=none;dashed=0;inherit=default;html=1;strokeWidth=0;" parent="1" vertex="1">
                    <mxGeometry x="320" y="200" as="geometry"/>
                </mxCell>
                <mxCell id="123436480265296" style="edgeStyle=orthogonalEdgeStyle;orthogonalLoop=1;rounded=0;jettySize=auto;" parent="1" source="123436480265152" target="123436480264864" edge="1">
                    <mxGeometry relative="1" as="geometry"/>
                </mxCell>
                <mxCell id="123436480265968" value="" style="whiteSpace=wrap;rounded=0;fillColor=none;strokeColor=none;dashed=0;inherit=default;html=1;strokeWidth=0;" parent="1" vertex="1">
                    <mxGeometry y="200" as="geometry"/>
                </mxCell>
                <mxCell id="123436480266064" value="" style="whiteSpace=wrap;rounded=0;fillColor=none;strokeColor=none;dashed=0;inherit=default;html=1;strokeWidth=0;" parent="1" vertex="1">
                    <mxGeometry x="480" y="200" as="geometry"/>
                </mxCell>
                <mxCell id="123436480266208" style="edgeStyle=orthogonalEdgeStyle;orthogonalLoop=1;rounded=0;jettySize=auto;endArrow=none;" parent="1" source="123436480266064" target="123436480265968" edge="1">
                    <mxGeometry relative="1" as="geometry"/>
                </mxCell>
                <mxCell id="123436480365392" value="0" style="text;whiteSpace=wrap;rounded=0;dashed=0;inherit=default;" parent="1" vertex="1">
                    <mxGeometry x="-5" y="200" as="geometry"/>
                </mxCell>
                <mxCell id="123436480365584" value="1" style="text;whiteSpace=wrap;rounded=0;dashed=0;inherit=default;" parent="1" vertex="1">
                    <mxGeometry x="35" y="200" as="geometry"/>
                </mxCell>
                <mxCell id="123436480365776" value="2" style="text;whiteSpace=wrap;rounded=0;dashed=0;inherit=default;" parent="1" vertex="1">
                    <mxGeometry x="75" y="200" as="geometry"/>
                </mxCell>
                <mxCell id="123436480365968" value="3" style="text;whiteSpace=wrap;rounded=0;dashed=0;inherit=default;" parent="1" vertex="1">
                    <mxGeometry x="115" y="200" as="geometry"/>
                </mxCell>
                <mxCell id="123436480366160" value="4" style="text;whiteSpace=wrap;rounded=0;dashed=0;inherit=default;" parent="1" vertex="1">
                    <mxGeometry x="155" y="200" as="geometry"/>
                </mxCell>
                <mxCell id="123436480366352" value="5" style="text;whiteSpace=wrap;rounded=0;dashed=0;inherit=default;" parent="1" vertex="1">
                    <mxGeometry x="195" y="200" as="geometry"/>
                </mxCell>
                <mxCell id="123436480366544" value="6" style="text;whiteSpace=wrap;rounded=0;dashed=0;inherit=default;" parent="1" vertex="1">
                    <mxGeometry x="235" y="200" as="geometry"/>
                </mxCell>
                <mxCell id="123436480366736" value="7" style="text;whiteSpace=wrap;rounded=0;dashed=0;inherit=default;" parent="1" vertex="1">
                    <mxGeometry x="275" y="200" as="geometry"/>
                </mxCell>
                <mxCell id="123436480366928" value="8" style="text;whiteSpace=wrap;rounded=0;dashed=0;inherit=default;" parent="1" vertex="1">
                    <mxGeometry x="315" y="200" as="geometry"/>
                </mxCell>
                <mxCell id="123436480367120" value="9" style="text;whiteSpace=wrap;rounded=0;dashed=0;inherit=default;" parent="1" vertex="1">
                    <mxGeometry x="355" y="200" as="geometry"/>
                </mxCell>
                <mxCell id="123436480367312" value="10" style="text;whiteSpace=wrap;rounded=0;dashed=0;inherit=default;" parent="1" vertex="1">
                    <mxGeometry x="395" y="200" as="geometry"/>
                </mxCell>
                <mxCell id="123436480255840" value="11" style="text;whiteSpace=wrap;rounded=0;dashed=0;inherit=default;" parent="1" vertex="1">
                    <mxGeometry x="435" y="200" as="geometry"/>
                </mxCell>
                <mxCell id="123436480254880" value="12" style="text;whiteSpace=wrap;rounded=0;dashed=0;inherit=default;" parent="1" vertex="1">
                    <mxGeometry x="475" y="200" as="geometry"/>
                </mxCell>
                <mxCell id="123436480367456" value="$$\tau_9: T=0, C=[3,3]$$" style="text;whiteSpace=wrap;rounded=0;dashed=0;inherit=default;" parent="1" vertex="1">
                    <mxGeometry x="-160" y="175" width="120" height="40" as="geometry"/>
                </mxCell>
                <mxCell id="123436480786081" value="" style="curved=1;endArrow=classic;html=1;exitX=0;exitY=0.5;exitDx=0;exitDy=0;entryX=0;entryY=0.5;entryDx=0;entryDy=0;fillColor=#f8cecc;strokeColor=#b85450;" edge="1" parent="1" source="123436480264528" target="123436480259632">
                    <mxGeometry width="50" height="50" relative="1" as="geometry">
                        <mxPoint x="200" y="160" as="sourcePoint"/>
                        <mxPoint x="250" y="110" as="targetPoint"/>
                        <Array as="points">
                            <mxPoint x="-240" y="90"/>
                            <mxPoint x="-250" y="40"/>
                            <mxPoint x="-240" y="10"/>
                            <mxPoint x="-190" y="20"/>
                        </Array>
                    </mxGeometry>
                </mxCell>
                <mxCell id="123436480786082" value="" style="curved=1;endArrow=classic;html=1;exitX=0;exitY=0.5;exitDx=0;exitDy=0;entryX=0;entryY=0.75;entryDx=0;entryDy=0;fillColor=#f8cecc;strokeColor=#b85450;" edge="1" parent="1" source="123436480367456" target="123436480264528">
                    <mxGeometry width="50" height="50" relative="1" as="geometry">
                        <mxPoint x="-150" y="125" as="sourcePoint"/>
                        <mxPoint x="-150" y="45" as="targetPoint"/>
                        <Array as="points">
                            <mxPoint x="-230" y="170"/>
                            <mxPoint x="-240" y="125"/>
                            <mxPoint x="-240" y="90"/>
                        </Array>
                    </mxGeometry>
                </mxCell>
            </root>
        </mxGraphModel>
    </diagram>
</mxfile>